<svg xmlns="http://www.w3.org/2000/svg" viewBox="0 0 474.17 151.56"><defs><style>.cls-1{fill:#fff;}</style></defs><title>Asset 3</title><g id="Layer_2" data-name="Layer 2"><g id="Layer_3" data-name="Layer 3"><path class="cls-1" d="M192.91,30.38a17.89,17.89,0,0,1,7.32,7.1,20.92,20.92,0,0,1,2.57,10.43,20.62,20.62,0,0,1-2.6,10.38,18.4,18.4,0,0,1-7.35,7.15,22.67,22.67,0,0,1-11,2.59h-15.9V27.85h15.9A23.27,23.27,0,0,1,192.91,30.38Zm-4.25,25.11q2.79-2.67,2.79-7.58c0-3.3-.93-5.86-2.79-7.66A10.57,10.57,0,0,0,181,37.54h-3.88V58.17H181A10.64,10.64,0,0,0,188.66,55.49Z"/><path class="cls-1" d="M220.64,36.8v6.55h12.82v8.49H220.64v7.24h14.53v9H209.46V27.85h25.71V36.8Z"/><path class="cls-1" d="M253.52,59.48H266V68H242.35V27.85h11.17Z"/><path class="cls-1" d="M283.16,27.85V68H272V27.85Z"/><path class="cls-1" d="M292.31,37.28a17.85,17.85,0,0,1,7-7.24,20.84,20.84,0,0,1,10.49-2.59,19.87,19.87,0,0,1,12.65,4,18.26,18.26,0,0,1,6.62,10.91h-12a8,8,0,0,0-3-3.47,8.16,8.16,0,0,0-4.42-1.2,7.62,7.62,0,0,0-6.18,2.76,11.16,11.16,0,0,0-2.31,7.38,11.22,11.22,0,0,0,2.31,7.44,7.6,7.6,0,0,0,6.18,2.77,7.81,7.81,0,0,0,7.41-4.68h12a18.25,18.25,0,0,1-6.62,10.92,19.87,19.87,0,0,1-12.65,4,20.85,20.85,0,0,1-10.49-2.6,17.79,17.79,0,0,1-7-7.24,22.24,22.24,0,0,1-2.48-10.63A22.14,22.14,0,0,1,292.31,37.28Z"/><path class="cls-1" d="M347.23,27.85V68H336.06V27.85Z"/><path class="cls-1" d="M364.16,65.78a19.79,19.79,0,0,1-7.49-7.35A20.53,20.53,0,0,1,353.9,47.8a20.51,20.51,0,0,1,2.77-10.63,19.53,19.53,0,0,1,7.49-7.33,21.91,21.91,0,0,1,20.78,0,19.47,19.47,0,0,1,7.44,7.33,20.77,20.77,0,0,1,2.73,10.63,20.8,20.8,0,0,1-2.73,10.63,19.67,19.67,0,0,1-7.47,7.35,21.63,21.63,0,0,1-20.75,0Zm17.13-10.51a10.88,10.88,0,0,0,2.48-7.47,10.91,10.91,0,0,0-2.48-7.55,9.66,9.66,0,0,0-13.54,0,11,11,0,0,0-2.45,7.55,10.9,10.9,0,0,0,2.45,7.49,9.63,9.63,0,0,0,13.54,0Z"/><path class="cls-1" d="M412.73,27.85V51.16a7.49,7.49,0,0,0,1.51,5,5.7,5.7,0,0,0,4.58,1.76,5.83,5.83,0,0,0,4.65-1.79,7.37,7.37,0,0,0,1.57-5V27.85h11.17V51.16a18,18,0,0,1-2.34,9.43,14.94,14.94,0,0,1-6.35,5.88,20.06,20.06,0,0,1-8.92,2,18.94,18.94,0,0,1-8.75-2,14.39,14.39,0,0,1-6.05-5.85,18.94,18.94,0,0,1-2.19-9.46V27.85Z"/><path class="cls-1" d="M447.67,65.1a12.05,12.05,0,0,1-4.85-9.55h11.91A4.45,4.45,0,0,0,456,58.63a4.53,4.53,0,0,0,5.33.2,2.57,2.57,0,0,0,1-2.14A3,3,0,0,0,460.66,54a29.77,29.77,0,0,0-5.36-2.16A48.34,48.34,0,0,1,449,49.25a12.18,12.18,0,0,1-4.22-3.59,10,10,0,0,1-1.8-6.18,11.27,11.27,0,0,1,1.94-6.64,11.94,11.94,0,0,1,5.36-4.19A20,20,0,0,1,458,27.22q7,0,11.2,3.28a11.76,11.76,0,0,1,4.48,9.2H461.52A3.57,3.57,0,0,0,460.4,37a4,4,0,0,0-2.7-.91,2.9,2.9,0,0,0-2.06.74,2.72,2.72,0,0,0-.79,2.11,2.58,2.58,0,0,0,.88,2,8.22,8.22,0,0,0,2.19,1.43c.88.4,2.17.9,3.88,1.51a47.43,47.43,0,0,1,6.3,2.59A12.86,12.86,0,0,1,472.37,50a9.22,9.22,0,0,1,1.8,5.84,11.82,11.82,0,0,1-1.8,6.45,12.25,12.25,0,0,1-5.18,4.5,18.12,18.12,0,0,1-8,1.65Q452.16,68.43,447.67,65.1Z"/><path class="cls-1" d="M186.27,126l-8-14.82h-1.2V126H165.92V85.85h17.61a18.23,18.23,0,0,1,8.21,1.68,11.76,11.76,0,0,1,5.07,4.62,12.81,12.81,0,0,1,1.71,6.58,12,12,0,0,1-2.25,7.21,12.22,12.22,0,0,1-6.58,4.42L198.75,126Zm-9.18-22.46h5.53a4.81,4.81,0,0,0,3.42-1.08,4.1,4.1,0,0,0,1.14-3.13,4,4,0,0,0-1.17-3,4.74,4.74,0,0,0-3.39-1.11h-5.53Z"/><path class="cls-1" d="M214.14,123.78a19.82,19.82,0,0,1-7.5-7.35,21.85,21.85,0,0,1,0-21.26,19.55,19.55,0,0,1,7.5-7.33,21.91,21.91,0,0,1,20.78,0,19.37,19.37,0,0,1,7.43,7.33,22,22,0,0,1,0,21.26,19.58,19.58,0,0,1-7.46,7.35,21.63,21.63,0,0,1-20.75,0Zm17.13-10.51a10.88,10.88,0,0,0,2.48-7.47,10.91,10.91,0,0,0-2.48-7.55,9.66,9.66,0,0,0-13.54,0,11,11,0,0,0-2.45,7.55,10.9,10.9,0,0,0,2.45,7.49,9.63,9.63,0,0,0,13.54,0Z"/><path class="cls-1" d="M262.93,117.48h12.48V126H251.76V85.85h11.17Z"/><path class="cls-1" d="M292.57,117.48h12.48V126H281.4V85.85h11.17Z"/><path class="cls-1" d="M314.69,123.1a12.05,12.05,0,0,1-4.85-9.55h11.91a4.49,4.49,0,0,0,1.26,3.08,4.53,4.53,0,0,0,5.33.2,2.57,2.57,0,0,0,1-2.14,3,3,0,0,0-1.65-2.74,29.77,29.77,0,0,0-5.36-2.16,48.34,48.34,0,0,1-6.35-2.54,12.18,12.18,0,0,1-4.22-3.59A9.94,9.94,0,0,1,310,97.48a11.26,11.26,0,0,1,1.93-6.64,11.94,11.94,0,0,1,5.36-4.19A20,20,0,0,1,325,85.22q7,0,11.2,3.28a11.76,11.76,0,0,1,4.48,9.2H328.54A3.59,3.59,0,0,0,327.43,95a4,4,0,0,0-2.71-.91,2.85,2.85,0,0,0-2.05.74,2.69,2.69,0,0,0-.8,2.11,2.58,2.58,0,0,0,.88,2,8.12,8.12,0,0,0,2.2,1.43c.87.4,2.16.9,3.87,1.51a47.43,47.43,0,0,1,6.3,2.59A13,13,0,0,1,339.4,108a9.28,9.28,0,0,1,1.79,5.84,11.9,11.9,0,0,1-1.79,6.45,12.34,12.34,0,0,1-5.19,4.5,18.12,18.12,0,0,1-8,1.65Q319.19,126.43,314.69,123.1Z"/><path class="cls-1" d="M151.56,65V86.93a3.86,3.86,0,0,1-.79,2.27,3,3,0,0,1-2,1.28l-18.25,2.76a62.16,62.16,0,0,1-3.85,9q3.45,4.94,10.56,13.62a3.81,3.81,0,0,1,1,2.47,3.28,3.28,0,0,1-.89,2.26,99.64,99.64,0,0,1-9.77,10.66q-7.11,7-9.27,7a4.85,4.85,0,0,1-2.57-.89l-13.62-10.66a55.49,55.49,0,0,1-9,3.75q-1.58,13.42-2.86,18.35a3.32,3.32,0,0,1-3.55,2.77H64.83a3.71,3.71,0,0,1-2.42-.84,3,3,0,0,1-1.14-2.12l-2.76-18.16a61.14,61.14,0,0,1-8.88-3.65L35.72,137.35a3.57,3.57,0,0,1-2.47.89,3.36,3.36,0,0,1-2.46-1.09Q18.36,125.9,14.5,120.57a3.84,3.84,0,0,1,.1-4.53c1-1.39,2.67-3.57,5-6.57s4.14-5.31,5.32-7a49.21,49.21,0,0,1-4-9.77L2.86,90.09A3.15,3.15,0,0,1,.79,88.85,3.7,3.7,0,0,1,0,86.53V64.63a3.77,3.77,0,0,1,.79-2.27,3,3,0,0,1,1.87-1.28L21,58.31a48.87,48.87,0,0,1,3.84-9.07q-3.94-5.62-10.55-13.62a3.71,3.71,0,0,1-1-2.37A4.22,4.22,0,0,1,14.21,31a97.49,97.49,0,0,1,9.72-10.6q7.16-7.06,9.32-7.06a4.2,4.2,0,0,1,2.57,1L49.43,24.86a56.2,56.2,0,0,1,9-3.74A162.21,162.21,0,0,1,61.27,2.76,3.33,3.33,0,0,1,64.83,0h21.9a3.73,3.73,0,0,1,2.42.84A2.91,2.91,0,0,1,90.28,3l2.77,18.16a60,60,0,0,1,8.88,3.65l14-10.56a3.21,3.21,0,0,1,2.37-.89,3.8,3.8,0,0,1,2.46,1q12.74,11.75,16.28,16.77a3.19,3.19,0,0,1,.69,2.17,3.77,3.77,0,0,1-.79,2.27q-1.47,2.07-5,6.56t-5.33,7a59.75,59.75,0,0,1,4,9.67l18.06,2.76a3.12,3.12,0,0,1,2.07,1.23A3.8,3.8,0,0,1,151.56,65ZM93.64,93.64a25.25,25.25,0,0,0,0-35.72,25.25,25.25,0,0,0-35.72,0,25.25,25.25,0,0,0,0,35.72,25.25,25.25,0,0,0,35.72,0Z"/></g></g></svg>